<?xml version="1.0" standalone="no"?>
<!DOCTYPE svg PUBLIC "-//W3C//DTD SVG 20010904//EN"
 "http://www.w3.org/TR/2001/REC-SVG-20010904/DTD/svg10.dtd">
<svg version="1.0" xmlns="http://www.w3.org/2000/svg"
 width="900.000000pt" height="600.000000pt" viewBox="0 0 900.000000 600.000000"
 preserveAspectRatio="xMidYMid meet">

<g transform="translate(0.000000,600.000000) scale(0.100000,-0.100000)"
fill="#000000" stroke="none">
<path d="M3850 3085 l0 -415 55 0 55 0 0 200 0 200 185 0 185 0 0 50 0 50
-185 0 -185 0 0 115 0 115 195 0 195 0 0 50 0 50 -250 0 -250 0 0 -415z"/>
<path d="M4840 3445 l0 -55 60 0 60 0 0 55 0 55 -60 0 -60 0 0 -55z"/>
<path d="M3149 3422 c-106 -43 -173 -107 -223 -212 -28 -58 -31 -75 -31 -155
1 -81 4 -97 34 -159 58 -119 151 -191 282 -216 132 -26 297 33 369 131 33 47
38 80 14 103 -28 29 -69 20 -102 -22 -17 -21 -54 -51 -84 -68 -45 -25 -64 -29
-128 -29 -64 0 -83 4 -129 30 -62 34 -95 73 -122 145 -35 93 -17 185 52 264
55 62 115 89 198 89 80 0 124 -17 184 -72 69 -63 127 -53 127 22 0 32 -71 96
-149 134 -74 37 -219 44 -292 15z"/>
<path d="M5257 3296 c-105 -38 -167 -117 -187 -238 -31 -181 45 -343 179 -382
74 -22 143 -20 221 7 l65 22 3 63 c3 63 -5 75 -29 45 -23 -27 -111 -63 -155
-63 -98 0 -168 75 -180 195 -10 97 10 172 60 222 68 68 159 69 254 3 23 -17
45 -30 48 -30 3 0 4 28 2 63 l-3 62 -65 22 c-74 25 -157 29 -213 9z"/>
<path d="M5705 3297 l-60 -12 -3 -54 c-3 -48 -1 -53 15 -47 93 36 235 44 281
15 25 -16 42 -51 42 -88 l0 -28 -99 -11 c-124 -15 -200 -42 -240 -87 -31 -35
-51 -89 -51 -136 0 -39 27 -110 53 -138 71 -77 207 -79 304 -5 l33 25 0 -30
c0 -31 0 -31 55 -31 l55 0 0 228 c0 238 -6 289 -38 331 -37 51 -96 74 -196 77
-50 2 -118 -2 -151 -9z m275 -390 l0 -93 -32 -19 c-138 -84 -264 -41 -245 83
11 65 67 98 202 115 81 11 75 17 75 -86z"/>
<path d="M4440 2980 l0 -310 50 0 50 0 0 218 c0 246 -4 233 80 271 27 12 67
21 98 21 l53 0 -3 53 c-3 50 -4 52 -33 55 -44 5 -96 -13 -148 -53 l-47 -36 0
46 0 45 -50 0 -50 0 0 -310z"/>
<path d="M4850 2980 l0 -310 50 0 50 0 0 310 0 310 -50 0 -50 0 0 -310z"/>
<path d="M3490 3128 c-180 -10 -200 -17 -200 -69 0 -54 23 -59 223 -48 98 5
187 14 198 19 28 15 26 74 -3 94 -12 9 -29 15 -38 15 -8 -1 -89 -6 -180 -11z"/>
</g>
</svg>
